<?xml version="1.0" standalone="no"?>
<!DOCTYPE svg PUBLIC "-//W3C//DTD SVG 20010904//EN"
 "http://www.w3.org/TR/2001/REC-SVG-20010904/DTD/svg10.dtd">
<svg version="1.0" xmlns="http://www.w3.org/2000/svg"
 width="512.000000pt" height="512.000000pt" viewBox="0 0 512.000000 512.000000"
 preserveAspectRatio="xMidYMid meet">
<metadata>
Created by potrace 1.14, written by Peter Selinger 2001-2017
</metadata>
<g transform="translate(0.000000,512.000000) scale(0.100000,-0.100000)"
fill="#000000" stroke="none">
<path d="M1400 4843 c0 -4 -26 -8 -58 -9 -31 0 -82 -4 -112 -8 -30 -4 -68 -10
-83 -12 -15 -2 -35 -8 -45 -13 -9 -5 -21 -9 -27 -9 -21 -1 -80 -14 -90 -20 -5
-4 -14 -7 -20 -8 -5 -1 -23 -7 -40 -14 -16 -6 -31 -11 -33 -11 -1 1 -23 -10
-50 -24 -26 -14 -50 -25 -54 -25 -12 0 -169 -100 -229 -146 -67 -51 -199 -181
-199 -195 0 -5 -7 -9 -15 -9 -8 0 -15 -6 -15 -13 0 -8 -9 -22 -20 -32 -11 -10
-20 -22 -20 -27 0 -5 -11 -21 -25 -36 -14 -15 -28 -36 -31 -47 -4 -11 -9 -22
-13 -25 -14 -11 -102 -185 -107 -210 0 -3 -6 -18 -12 -33 -7 -16 -12 -34 -12
-42 0 -8 -5 -17 -10 -20 -6 -3 -10 -17 -10 -31 0 -14 -4 -33 -9 -42 -5 -9 -12
-39 -15 -66 -4 -27 -9 -52 -11 -56 -6 -9 -18 -167 -18 -235 0 -57 11 -178 19
-220 3 -11 7 -36 10 -55 3 -19 7 -42 10 -50 3 -8 7 -29 9 -46 3 -17 16 -73 31
-125 14 -52 29 -109 31 -126 3 -18 9 -33 15 -33 5 0 6 -4 3 -10 -3 -5 -1 -10
5 -10 6 0 9 -4 6 -9 -3 -5 1 -26 10 -47 33 -79 37 -89 39 -100 2 -5 12 -30 24
-54 11 -24 21 -50 21 -57 0 -7 5 -13 10 -13 6 0 10 -6 10 -14 0 -8 15 -43 34
-78 19 -35 47 -88 62 -118 16 -30 31 -57 34 -60 10 -10 41 -65 47 -82 3 -10 9
-18 14 -18 5 0 9 -7 9 -15 0 -8 3 -15 8 -15 4 0 13 -14 20 -30 8 -17 19 -36
26 -43 6 -6 25 -33 41 -59 17 -27 33 -48 38 -48 4 0 7 -7 7 -15 0 -8 4 -15 8
-15 4 0 16 -15 27 -32 10 -18 27 -40 37 -49 10 -9 18 -20 18 -24 0 -5 7 -15
15 -24 47 -52 55 -62 55 -68 0 -5 17 -26 38 -48 20 -22 59 -67 87 -100 27 -33
75 -86 106 -117 31 -32 55 -58 54 -58 -4 0 172 -173 254 -250 35 -33 68 -60
73 -60 5 0 6 -4 3 -10 -3 -5 0 -10 7 -10 8 0 20 -9 28 -20 8 -11 18 -20 23
-20 4 0 21 -14 37 -30 16 -17 32 -30 35 -30 3 0 18 -11 33 -24 47 -42 246
-190 275 -205 15 -8 27 -18 27 -23 0 -4 5 -8 10 -8 6 0 20 -9 32 -20 12 -11
28 -20 35 -20 7 0 13 -4 13 -10 0 -5 7 -10 15 -10 8 0 15 -4 15 -8 0 -5 17
-17 38 -28 56 -31 86 -48 92 -54 19 -20 380 -198 415 -205 6 -1 13 -3 18 -5
15 -5 52 -5 57 0 3 3 28 14 55 24 58 22 317 147 325 158 3 4 22 14 43 23 20 8
37 20 37 26 0 5 4 8 9 5 5 -3 14 1 21 9 7 8 19 15 26 15 8 0 14 5 14 10 0 6 7
10 15 10 8 0 15 5 15 10 0 6 5 10 12 10 6 0 26 11 44 25 19 14 37 26 41 27 5
1 13 6 18 10 6 5 28 22 50 38 22 16 47 35 55 42 8 7 17 13 20 13 10 1 110 79
110 87 0 4 6 8 14 8 8 0 16 3 18 8 1 4 39 36 83 72 44 35 92 76 106 90 33 31
72 65 81 69 9 4 331 329 367 371 17 19 31 38 31 43 0 4 7 7 15 7 8 0 15 5 15
11 0 5 26 40 58 77 56 66 79 95 141 177 17 22 35 45 41 52 5 7 10 14 10 17 0
3 10 16 23 30 12 13 29 37 37 53 8 15 18 30 21 33 6 5 67 99 127 196 18 28 32
56 32 62 0 5 4 12 9 14 11 4 149 283 185 373 15 39 34 85 42 103 8 18 14 41
14 50 0 10 4 22 8 28 8 8 25 61 38 113 2 9 8 36 15 61 12 50 11 45 39 185 47
237 44 410 -10 640 -19 82 -69 226 -80 235 -4 3 -10 17 -14 33 -3 15 -11 27
-16 27 -6 0 -10 9 -10 19 0 11 -6 26 -14 33 -7 8 -20 28 -29 44 -44 85 -248
324 -276 324 -6 0 -11 4 -11 9 0 13 -191 151 -209 151 -5 0 -11 3 -13 8 -1 4
-43 26 -93 48 -79 36 -123 52 -260 94 -16 5 -47 11 -67 14 -21 3 -53 8 -70 11
-18 3 -61 7 -95 9 -34 2 -67 7 -74 11 -8 6 -10 4 -4 -4 6 -10 3 -11 -13 -2
-14 7 -23 8 -27 1 -4 -7 -13 -7 -26 0 -10 6 -19 7 -19 3 0 -4 -17 -8 -38 -9
-37 -1 -137 -11 -137 -14 0 -1 -37 -8 -75 -14 -9 -1 -20 -4 -25 -8 -6 -3 -20
-4 -32 -3 -13 1 -23 -2 -23 -6 0 -5 -19 -13 -42 -20 -49 -12 -205 -77 -228
-93 -14 -10 -37 -24 -85 -50 -11 -6 -22 -13 -25 -16 -3 -3 -18 -14 -33 -23
-36 -23 -65 -47 -86 -69 -8 -10 -19 -18 -23 -18 -11 0 -113 -104 -158 -159
-64 -80 -71 -86 -84 -69 -58 79 -165 192 -230 243 -21 17 -44 35 -50 40 -44
41 -234 147 -336 187 -14 6 -33 14 -42 19 -10 5 -27 9 -37 9 -11 0 -23 5 -26
10 -3 6 -16 10 -29 10 -12 0 -26 3 -29 7 -4 3 -17 7 -29 9 -13 1 -36 5 -53 8
-16 4 -52 9 -80 12 -102 11 -116 13 -125 19 -6 3 -10 2 -10 -2 0 -10 -41 -10
-58 1 -7 4 -12 4 -12 -1z"/>
</g>
</svg>
